<svg width="130" height="40" viewBox="0 0 130 40" fill="none" xmlns="http://www.w3.org/2000/svg">
<g clip-path="url(#clip0)">
<path d="M55.541 25.8443C54.2342 25.8443 53.0518 25.5975 51.9939 25.0732C50.936 24.549 50.0025 23.8396 49.2557 22.9761C48.509 22.0817 47.9178 21.064 47.4822 19.8612C47.0466 18.6893 46.8599 17.394 46.8599 16.037C46.8599 14.6183 47.0777 13.2922 47.5444 12.0586C47.98 10.825 48.6023 9.7764 49.4113 8.88203C50.2203 7.98766 51.1538 7.27833 52.2739 6.75404C53.3941 6.22976 54.6387 5.98303 55.9767 5.98303C57.4702 5.98303 58.777 6.29144 59.8661 6.93908C60.9862 7.55589 61.8575 8.45026 62.542 9.56052V6.35312H67.7383V24.4256C67.7383 25.9059 67.4582 27.2321 66.8982 28.4348C66.3381 29.6068 65.5602 30.6245 64.5645 31.4572C63.5688 32.2899 62.3864 32.9067 60.9862 33.3693C59.586 33.8011 58.0614 34.0478 56.3812 34.0478C54.2653 34.0478 52.4606 33.7086 50.9671 33.0609C49.4736 32.3824 48.1667 31.4264 47.0466 30.1619L50.2514 26.9545C50.9671 27.7564 51.8694 28.404 52.9274 28.8974C53.9853 29.3909 55.1366 29.6068 56.35 29.6068C57.0657 29.6068 57.7502 29.5143 58.4037 29.2984C59.0571 29.1133 59.6172 28.8049 60.115 28.404C60.6129 28.0031 61.0174 27.4788 61.2974 26.8003C61.5774 26.1527 61.733 25.3508 61.733 24.4564V22.5752C61.1418 23.6546 60.2706 24.4873 59.1504 25.0424C58.0303 25.5667 56.8168 25.8443 55.541 25.8443ZM57.5947 21.1257C58.5281 21.1257 59.3371 20.8789 60.0528 20.3547C60.7684 19.8612 61.3285 19.2136 61.733 18.4117V14.3716C61.3285 13.323 60.7373 12.5212 59.8972 11.9044C59.0882 11.2876 58.217 11.01 57.2835 11.01C56.6301 11.01 56.0389 11.1642 55.5099 11.4418C54.981 11.7193 54.5142 12.1203 54.1409 12.5829C53.7675 13.0763 53.4563 13.6315 53.2385 14.2483C53.0207 14.8651 52.9274 15.5127 52.9274 16.1912C52.9274 16.9005 53.0518 17.579 53.2696 18.165C53.5185 18.7818 53.8297 19.3061 54.2653 19.7379C54.7009 20.1696 55.1677 20.5397 55.7277 20.7864C56.2878 21.0023 56.9101 21.1257 57.5947 21.1257Z" fill="#1E1C1C"/>
<path d="M81.3357 26.1218C79.6866 26.1218 78.2242 25.8443 76.9173 25.32C75.6105 24.7957 74.4903 24.0555 73.588 23.1612C72.6856 22.2359 72.0011 21.1874 71.5033 19.9846C71.0365 18.7818 70.7876 17.5482 70.7876 16.2221C70.7876 14.8034 71.0365 13.4773 71.5033 12.2437C71.97 11.01 72.6545 9.89978 73.5569 8.97457C74.4592 8.04936 75.5483 7.30919 76.8551 6.75406C78.1619 6.19893 79.6555 5.95221 81.3046 5.95221C82.9848 5.95221 84.4473 6.22977 85.7541 6.75406C87.0609 7.30919 88.15 8.01852 89.0523 8.94373C89.9547 9.86894 90.6392 10.9484 91.0748 12.1511C91.5416 13.3539 91.7594 14.6184 91.7594 15.9753C91.7594 16.3146 91.7594 16.6538 91.7283 16.9931C91.6971 17.3323 91.666 17.6099 91.6038 17.8566H77.1663C77.2596 19.1519 77.7574 20.1696 78.5976 20.8481C79.4688 21.5266 80.4334 21.8659 81.5224 21.8659C82.3936 21.8659 83.2338 21.65 84.0428 21.249C84.8518 20.8173 85.3807 20.2622 85.6608 19.5528L90.7326 20.9715C89.9547 22.5135 88.7723 23.7471 87.1543 24.7032C85.5363 25.6592 83.6071 26.1218 81.3357 26.1218ZM85.4741 14.2174C85.3496 12.9838 84.914 11.9969 84.1361 11.2876C83.3582 10.5783 82.3936 10.2082 81.2735 10.2082C80.0911 10.2082 79.1265 10.5783 78.3798 11.2876C77.633 12.0278 77.1663 12.9838 77.0418 14.1866H85.4741V14.2174Z" fill="#1E1C1C"/>
<path d="M104.143 26.1219C102.463 26.1219 101.001 25.8443 99.6937 25.32C98.3869 24.7649 97.2979 24.0555 96.3955 23.1303C95.4932 22.2051 94.8086 21.1257 94.373 19.9229C93.9063 18.6893 93.6885 17.4249 93.6885 16.0987C93.6885 14.7726 93.9063 13.4773 94.373 12.2745C94.8397 11.0409 95.5243 9.99233 96.3955 9.06711C97.2979 8.1419 98.3869 7.40173 99.6937 6.84661C101.001 6.29148 102.494 6.01392 104.143 6.01392C105.823 6.01392 107.286 6.29148 108.593 6.84661C109.9 7.40173 110.989 8.1419 111.891 9.06711C112.793 9.99233 113.478 11.0717 113.945 12.2745C114.411 13.5081 114.66 14.7726 114.66 16.0987C114.66 17.4249 114.442 18.7202 113.976 19.9229C113.509 21.1565 112.824 22.2051 111.953 23.1303C111.051 24.0555 109.962 24.7957 108.655 25.32C107.286 25.8751 105.823 26.1219 104.143 26.1219ZM99.7871 16.0679C99.7871 17.6099 100.192 18.8127 101.032 19.7379C101.841 20.6631 102.899 21.1257 104.174 21.1257C104.797 21.1257 105.357 21.0023 105.886 20.7556C106.415 20.5089 106.85 20.1697 107.255 19.7071C107.628 19.2753 107.939 18.7202 108.157 18.1034C108.375 17.4865 108.499 16.7772 108.499 16.037C108.499 14.495 108.095 13.2922 107.255 12.367C106.446 11.4418 105.388 10.9792 104.143 10.9792C103.521 10.9792 102.93 11.1026 102.401 11.3493C101.872 11.596 101.405 11.9353 101.032 12.3979C100.658 12.8296 100.347 13.3848 100.129 14.0016C99.8804 14.6492 99.7871 15.3277 99.7871 16.0679Z" fill="#1E1C1C"/>
<path d="M130 11.411C128.569 11.4418 127.262 11.6577 126.08 12.1203C124.897 12.5521 124.057 13.2306 123.528 14.1249V25.7826H117.554V6.35314H123.03V10.2699C123.715 8.97458 124.555 7.926 125.613 7.18583C126.671 6.44566 127.791 6.07558 129.004 6.04474C129.284 6.04474 129.471 6.04474 129.596 6.04474C129.72 6.04474 129.845 6.04474 129.969 6.07558V11.411H130Z" fill="#1E1C1C"/>
<path d="M20.5051 36.1141C30.0425 36.1141 37.7741 28.4508 37.7741 18.9977C37.7741 9.54457 30.0425 1.88129 20.5051 1.88129C10.9677 1.88129 3.23608 9.54457 3.23608 18.9977C3.23608 28.4508 10.9677 36.1141 20.5051 36.1141Z" fill="#E8EEEF"/>
<path d="M20.4733 0C9.30283 0 0.0304544 8.88204 -0.000660925 19.9229C-0.0317763 25.4742 2.23965 30.5012 5.91126 34.1095C9.55176 37.7178 14.5924 39.9692 20.1621 39.9692C25.7317 39.9692 30.7724 37.7178 34.4129 34.1095C38.0534 30.5012 40.3249 25.505 40.3249 19.9846V4.56438C40.356 2.06631 38.2712 0 35.7198 0H20.4733ZM34.1018 19.9229C34.1018 23.7163 32.546 27.1704 30.0257 29.6376C27.5053 32.1357 24.0515 33.6777 20.2243 33.6777C16.3971 33.6777 12.9122 32.1357 10.423 29.6376C7.93376 27.1704 6.37799 23.778 6.34687 20.0154C6.28464 12.3978 12.7878 6.16808 20.4733 6.16808H29.7456L24.4871 11.3801H20.411C15.6815 11.3801 11.6987 15.081 11.6054 19.7379C11.5431 22.1742 12.5388 24.3639 14.1257 25.9676C15.6815 27.5096 17.8284 28.4657 20.2243 28.4657C22.2157 28.4657 24.0826 27.7872 25.5451 26.6461C27.0075 25.505 28.0965 23.9013 28.5632 22.0817H21.3445L25.5451 17.9183H34.1018V19.9229Z" fill="#B82723"/>
</g>
<defs>
<clipPath id="clip0">
<rect width="130" height="40" fill="white"/>
</clipPath>
</defs>
</svg>
